<svg xmlns="http://www.w3.org/2000/svg" viewBox="0 0 528.27 95.92"><g id="Layer_2" data-name="Layer 2"><g id="Layer_1-2" data-name="Layer 1"><path d="M17.85,3.27a17.08,17.08,0,0,1,10.61-3q10.8.27,10.8,12.89a18.94,18.94,0,0,1-.81,5.9q-.73,2-5,11.52A95.44,95.44,0,0,1,48.07,17c5-3.51,9-5.26,12.06-5.26q7.44,0,7.45,6.35A12.52,12.52,0,0,1,66.49,23q-6.9,13.78-15.43,31.58a9.66,9.66,0,0,0-.91,3.54c0,1,.36,1.54,1.09,1.54s1.94-.64,3.45-1.91,3.48-3.08,5.9-5.44a3.4,3.4,0,0,1,2.54-.91c1.15-.06,1.72.33,1.72,1.18a5.16,5.16,0,0,1-1.54,2.9A66.1,66.1,0,0,1,53,65.06Q45.16,71,40.35,71a6.27,6.27,0,0,1-5.53-2.81A10.88,10.88,0,0,1,33.18,62a12.78,12.78,0,0,1,1-5.17q5.18-9.63,12.52-25a9.13,9.13,0,0,0,.82-3.36c0-1.45-.6-2.17-1.81-2.17s-2.64.75-4.45,2.26q-6.07,5.18-15.61,18.79-1.37,2.91-3.72,7.8a10.75,10.75,0,0,0,5.9-1.36A2.42,2.42,0,0,1,29,53.45c1.21,0,1.81.63,1.81,1.9a2.21,2.21,0,0,1-1.27,2A13.05,13.05,0,0,1,23,59h-2.9q-3.54,6.52-6.27,8.4a16.71,16.71,0,0,1-9.89,3c-2.3,0-3.44-.82-3.44-2.45,0-1.33.93-4,2.81-7.9q1.55-3.27,3.81-7.53Q-.66,45,.06,35.93,1.69,14.35,17.85,3.27ZM4.69,36.12A16.8,16.8,0,0,0,9.05,48.55Q21.74,23.23,24.11,17.6a9.12,9.12,0,0,0,.82-3.54c0-3.14-1.55-4.71-4.63-4.71a6.41,6.41,0,0,0-2.54.54,20.14,20.14,0,0,0-4.36,3.72,33.77,33.77,0,0,0-5.81,9.71A36,36,0,0,0,4.69,36.12Z"/><path d="M63.31,53.9q-2-1.26-.91-3,1.82-2.08,7.53-9.26,2.91-4.26,5.9-8.53C78.07,30,79.79,28.25,81,28a20.89,20.89,0,0,1,2.91-.64,2.45,2.45,0,0,1,1.72,1.09c2.66,3.15,4,5.42,4,6.81q0,2.45-3.73,10.62-3.45,7.62-3.44,9.8,0,1,.81,1,1,0,4.54-3.72,4.35-4.62,6-4.62c1.27,0,1.91.57,1.91,1.72a6.1,6.1,0,0,1-1,2.63q-2.37,4-10.26,10.26-8.52,6.8-12.61,6.8a5.42,5.42,0,0,1-4.45-2.18A5.51,5.51,0,0,1,66,64.16a20.06,20.06,0,0,1,1.73-7.54q.9-2.26,6.26-13.24-3.63,4.53-8.26,9.8A4.4,4.4,0,0,1,63.31,53.9Zm37.2-47.28c1.09.79,1.64,2.18,1.64,4.18a11.64,11.64,0,0,1-3,7.94,9.3,9.3,0,0,1-7.26,3.4,7.41,7.41,0,0,1-4.44-1.31q-1.82-1.32-1.82-4.5a12.63,12.63,0,0,1,2.91-7.71,8.34,8.34,0,0,1,6.89-3.54A8.6,8.6,0,0,1,100.51,6.62Z"/><path d="M106,33.3c-1.94,0-2.91-.75-2.91-2.27a3.65,3.65,0,0,1,.46-1.63q1-1.72,7-1.72c.72-.85,1.27-1.51,1.63-2q.63-1.09,6.71-11.16c.67-1.09,1.39-1.63,2.18-1.63s1.57.54,2.54,1.63c.79.91,1.55,1.81,2.27,2.72a6.52,6.52,0,0,1,1.27,3.81,11.72,11.72,0,0,1-1.27,4.9c0-.06-.33.58-1,1.91,5.08,0,7.63.51,7.63,1.54a2.47,2.47,0,0,1-.46,1.18l-1.63,2.36a4.38,4.38,0,0,1-2.63.54h-5.81q-3.45,5.94-4.36,7.26a13,13,0,0,1,1.09-2q-7.53,14.34-7.89,15.42-1.18,3.09.27,3.91a2.63,2.63,0,0,0,1.81-.14,4.87,4.87,0,0,0,2.09-1.13q3.45-2.73,8-6.63A3.37,3.37,0,0,1,125.47,49c1.27,0,1.9.58,1.9,1.73,0,.54-.54,1.45-1.63,2.72a62.28,62.28,0,0,1-11.16,9.8q-8.81,6.25-13.16,6.26a7.09,7.09,0,0,1-5.72-2.63,5.84,5.84,0,0,1-1.63-4.81q.83-6.27,8.35-19.15-3.54,4.55-8.89,10.71-1.73,1.73-3.27.54-1.64-1,0-2.81Q96.6,44.28,106,33.3Z"/><path d="M142.07,66.52a23.56,23.56,0,0,0,2.73-.64,60.43,60.43,0,0,0,6.8-14,30.64,30.64,0,0,0,2-10.35,25.47,25.47,0,0,0-.55-5.08,29.58,29.58,0,0,1-.54-3.18,14,14,0,0,1,1.91-6.89A4.56,4.56,0,0,1,158.59,24c1.75,0,3.27.94,4.54,2.81A9,9,0,0,1,164.49,32a29.91,29.91,0,0,1-3.18,12.53,129.66,129.66,0,0,1-10.43,18.69,45.43,45.43,0,0,0,13.24-12,3.37,3.37,0,0,1,2.82-1.45c1,0,1.54.42,1.54,1.27a4.61,4.61,0,0,1-1.18,2.62q-3.72,5.07-12.61,11.5a28.7,28.7,0,0,1-8.44,4.35,96.78,96.78,0,0,1-8.8,10.06Q123.38,93.29,115.3,95.37a14.91,14.91,0,0,1-3.9.55,8.37,8.37,0,0,1-8.26-5.17,7.37,7.37,0,0,1-.72-3.17q0-7.42,11.89-13.13a81.37,81.37,0,0,1,16-5.43q1.26-4.62,3-13.77a24.93,24.93,0,0,0,.55-4.35,5.56,5.56,0,0,0-1.18-3.44.87.87,0,0,0-.73-.36c-.67,0-2.54,1.78-5.63,5.35-1,1.15-1.87,1.63-2.72,1.45s-1.18-.66-1.18-1.63a3.93,3.93,0,0,1,1.36-2.72q2.46-2.46,8.17-9.62,3.18-4.08,6.26-8.17c1.69-2,3.33-3,4.9-3,2.78,0,4.18,2.6,4.18,7.8a76.76,76.76,0,0,1-.91,10.25A140.46,140.46,0,0,1,142.07,66.52Zm-13,6.71q-15.88,4-19.24,11.07a8.82,8.82,0,0,0-.91,3.54c0,2.54,1.61,3.81,4.81,3.81q9.08-1.19,14.52-15.79A26.5,26.5,0,0,0,129.1,73.23Z"/><path d="M202.68,29.58c1.22-2.42,1.82-3.66,1.82-3.72q1.35-3.08,3.42-3.63,1.44-.36,4.5,2.91a7.66,7.66,0,0,1,2.43,5.08q0,1.73-2.09,5.71-2.35,4.64-7.17,13.71a12.56,12.56,0,0,0-1.81,5.71c0,1,.21,1.67.63,1.91s1.76-.55,4-2.36a40,40,0,0,0,4.8-4.54c.73-.84,1.18-1.27,1.37-1.27.36,0,.78.31,1.27.91a2.69,2.69,0,0,1,.72,1.54,3.33,3.33,0,0,1-1.18,2c-.78.82-1.6,1.68-2.45,2.59a85.9,85.9,0,0,1-6.85,6.31,78.36,78.36,0,0,1-6.67,5.31,11.37,11.37,0,0,1-6,1.9,7,7,0,0,1-4.13-1.31,4.62,4.62,0,0,1-1.86-4,11,11,0,0,1,.46-3,60.07,60.07,0,0,1-8.44,6.17,13.53,13.53,0,0,1-6.72,1.91,7.68,7.68,0,0,1-5.53-2.09A7.08,7.08,0,0,1,165,62a15.52,15.52,0,0,1,1.72-6.81c-1.33.12-2.17,0-2.54-.32s-.54-1.28-.54-2.85c0-.37.53-1,1.59-2l3.05-2.81a69.83,69.83,0,0,0,6.91-7.35,43,43,0,0,1,5-6.08,23.43,23.43,0,0,1,9.28-5.18,17.67,17.67,0,0,1,5.18-.72A16,16,0,0,1,202.68,29.58Zm-19.41,28q1.9,0,5.53-3.72a46.26,46.26,0,0,0,4.63-5.71q4.37-6.63,4.36-10c0-1.45-.61-2.17-1.82-2.17q-2.44,0-9.16,9.34-5.17,7.26-5.17,10.26C181.64,57,182.18,57.62,183.27,57.62Z"/><path d="M254.23,56.26a9.77,9.77,0,0,0,3.72-.82,9.82,9.82,0,0,1,2.54-.81,1.52,1.52,0,0,1,1.73,1.72A2.18,2.18,0,0,1,261,58.26,12.72,12.72,0,0,1,254.5,60h-2.17q-3.09,5.49-5.72,7.38a15.73,15.73,0,0,1-9,3.15q-3.63,0-3.63-3.09c0-1.69.87-4.35,2.63-8q1-2,3.54-7-4.81-6.81-4.63-16.52a37.92,37.92,0,0,1,5.72-18.78A47.16,47.16,0,0,1,251.51,5a24.84,24.84,0,0,1,2.18-1.54A20.39,20.39,0,0,1,264.49,0q8.61,0,8.62,9a38.92,38.92,0,0,1-1.55,9.08q-.54,2.09-5.62,13.34,13.51-17,22.77-20.15A16.53,16.53,0,0,1,294,10.16c3.38,0,5.08,1.79,5.08,5.36A20.49,20.49,0,0,1,297.34,23q-2.1,5.26-6.08,13.16,15.42-18.06,25.68-18.06,6.07,0,6.08,5.26a18.37,18.37,0,0,1-1.73,6.81q-5.44,10.25-12.52,24.41a10.23,10.23,0,0,0-1,3.72q0,3,4.45-.55,2.53-2.09,6.62-5.62a3.72,3.72,0,0,1,2.72-1.18c.67,0,1,.24,1,.72s-.57,1.58-1.72,2.91a70.74,70.74,0,0,1-9.71,9.34q-7.17,5.64-12.07,5.63-6.63,0-6.63-6.81a13.26,13.26,0,0,1,1.18-5.44q5.17-11.43,8.35-19.6a13.13,13.13,0,0,0,1.09-4.36c0-.84-.3-1.27-.91-1.27-.84,0-2.11.73-3.81,2.18a91.56,91.56,0,0,0-13.88,15.88l-3.09,6.17q-2.81,5.63-3.53,6.81a14.87,14.87,0,0,1-3.82,4q-4.62,3.45-8.8,3.45-4.35,0-4.35-2.45a9,9,0,0,1,1-3.45Q265.75,56,277.46,34c1.82-3.39,2.72-6,2.72-7.71,0-1.09-.36-1.64-1.09-1.64q-2.89,0-10.43,9.35-5.36,6.63-11.34,15.7Q256.22,52.18,254.23,56.26ZM239.8,36.66a21.3,21.3,0,0,0,2.45,11.43q13.16-26,15.43-31.48a12.05,12.05,0,0,0,1.09-4.45q0-3.27-2.91-3.27a6.89,6.89,0,0,0-1.45.18l-.54.28q-4.63,2.26-9,10.25A38.93,38.93,0,0,0,239.8,36.66Z"/><path d="M321.2,50.73q.27-.46,9.35-10.26a90.16,90.16,0,0,0,6.8-9.3q4.72-7,7.62-12.3,2.1-4.26,4.18-8.43,3.45-6.54,5.44-6.54,3.27,0,6.08,9.35a2.34,2.34,0,0,1,.09.72q0,2-3.63,8.81-5.25,10-7.26,14.52,14.16-9.07,19.88-9.08a4.13,4.13,0,0,1,3.17,1.36,4.73,4.73,0,0,1,1.27,3.36,10.47,10.47,0,0,1-.54,3.09Q373,38,365,52.45a4.47,4.47,0,0,0-.64,2.09c0,1,.64,1.45,1.91,1.45a4,4,0,0,0,2.63-.82A34.15,34.15,0,0,0,374.1,50c1-1.27,1.91-1.91,2.63-1.91,1.21,0,1.82.58,1.82,1.73a3,3,0,0,1-.73,1.63,7.52,7.52,0,0,0-.81,1.27q-.19.91-9.26,9a49.25,49.25,0,0,1-7.35,5.35c-3,1.82-5.14,2.72-6.53,2.72a1.8,1.8,0,0,1-.82-.18q-5.26-2.89-5.26-6.17,0-2.26,2.08-7.08,2.64-5.9,2.64-8.62c0-.85-.28-1.27-.82-1.27q-1.81,0-7.71,7.71-7,9.18-11.26,12.44c-.18.12-1.81.93-4.9,2.45a3.07,3.07,0,0,1-1.36.36q-2.08,0-3.26-3.27-.46-1.17,5.53-12.25,8.44-15.51,9.44-17.6a106.4,106.4,0,0,1-7.81,10.34q-5.16,6.27-6.44,7.53a1.53,1.53,0,0,1-1.09.55,2,2,0,0,1-2-1.27A2.76,2.76,0,0,1,321.2,50.73Z"/><path d="M411.39,29.58c1.22-2.42,1.82-3.66,1.82-3.72q1.35-3.08,3.42-3.63,1.44-.36,4.5,2.91a7.66,7.66,0,0,1,2.43,5.08q0,1.73-2.09,5.71-2.36,4.64-7.17,13.71a12.56,12.56,0,0,0-1.81,5.71c0,1,.21,1.67.63,1.91s1.76-.55,4-2.36a40,40,0,0,0,4.8-4.54c.73-.84,1.18-1.27,1.37-1.27.36,0,.78.31,1.27.91a2.69,2.69,0,0,1,.72,1.54,3.33,3.33,0,0,1-1.18,2c-.78.82-1.6,1.68-2.45,2.59a85.9,85.9,0,0,1-6.85,6.31,78.36,78.36,0,0,1-6.67,5.31,11.39,11.39,0,0,1-6,1.9A7,7,0,0,1,398,68.38a4.62,4.62,0,0,1-1.86-4,11,11,0,0,1,.46-3,60.07,60.07,0,0,1-8.44,6.17,13.53,13.53,0,0,1-6.72,1.91,7.66,7.66,0,0,1-5.53-2.09A7,7,0,0,1,373.74,62a15.52,15.52,0,0,1,1.72-6.81c-1.33.12-2.17,0-2.54-.32s-.54-1.28-.54-2.85c0-.37.53-1,1.59-2l3-2.81a69.83,69.83,0,0,0,6.91-7.35,43,43,0,0,1,5-6.08,23.43,23.43,0,0,1,9.28-5.18,17.67,17.67,0,0,1,5.18-.72A16,16,0,0,1,411.39,29.58ZM392,57.62q1.9,0,5.53-3.72a46.26,46.26,0,0,0,4.63-5.71q4.37-6.63,4.36-10c0-1.45-.61-2.17-1.82-2.17q-2.44,0-9.16,9.34-5.17,7.26-5.17,10.26C390.35,57,390.89,57.62,392,57.62Z"/><path d="M436.53,33.3c-1.93,0-2.9-.75-2.9-2.27a3.76,3.76,0,0,1,.45-1.63q1-1.72,7-1.72c.73-.85,1.27-1.51,1.63-2q.65-1.09,6.72-11.16c.66-1.09,1.39-1.63,2.18-1.63a3.89,3.89,0,0,1,2.54,1.63c.78.91,1.54,1.81,2.27,2.72a6.59,6.59,0,0,1,1.27,3.81,11.87,11.87,0,0,1-1.27,4.9,18.45,18.45,0,0,0-1,1.91q7.62,0,7.62,1.54a2.44,2.44,0,0,1-.45,1.18l-1.64,2.36a4.36,4.36,0,0,1-2.63.54H452.5q-3.45,5.94-4.35,7.26a12,12,0,0,1,1.09-2q-7.55,14.34-7.9,15.42-1.17,3.09.28,3.91c.3.18.9.13,1.81-.14a4.93,4.93,0,0,0,2.09-1.13q3.45-2.73,8-6.63A3.4,3.4,0,0,1,456,49c1.27,0,1.91.58,1.91,1.73,0,.54-.55,1.45-1.63,2.72a62.4,62.4,0,0,1-11.17,9.8q-8.79,6.25-13.15,6.26a7.07,7.07,0,0,1-5.72-2.63,5.81,5.81,0,0,1-1.63-4.81q.81-6.27,8.34-19.15-3.54,4.55-8.89,10.71-1.73,1.73-3.26.54-1.63-1,0-2.81Q427.19,44.28,436.53,33.3Z"/><path d="M464.84,35.3A5.32,5.32,0,0,1,462.76,31a11,11,0,0,1,1.36-4.81q2.26-4.35,6.62-4.35a4.28,4.28,0,0,1,2.77.91,3.37,3.37,0,0,1,1.14,2.81,9.81,9.81,0,0,1-1.09,4.17q2.35,1.36,7.07-.18a20.76,20.76,0,0,1,5.63-1.36,2.59,2.59,0,0,1,2.9,2.09,6,6,0,0,1,.19,1.45,7.91,7.91,0,0,1-.91,3.4c-.61,1.24-1.21,2.44-1.82,3.59q-3,6.34-6.71,14.7c-.73,2-.73,3.21,0,3.63a3.41,3.41,0,0,0,2.72-1.54q2.17-2,5.45-5.27A2.87,2.87,0,0,1,490.53,49a1.41,1.41,0,0,1,1.27.55,2,2,0,0,1,.72,1.27c0,.42-.54,1.3-1.63,2.63Q482.17,64,473,68.42a10.9,10.9,0,0,1-4.9,1.27,7.18,7.18,0,0,1-7.26-7.53q.63-5.71,9.26-16.52,3.36-4.17,3.36-6.53c0-1.51-1.31-2.27-3.91-2.27q-9.8,12.79-14,16.88a2.29,2.29,0,0,1-3.18.45,1.22,1.22,0,0,1-.72-1.18,1.91,1.91,0,0,1,.72-1.45q3.9-4.35,6.08-7.08A83.23,83.23,0,0,0,464.84,35.3Z"/><path d="M503.59,57.17q-.45,5,3.63,5.08c1.69.06,3.84-.66,6.44-2.18a31,31,0,0,0,6.17-4.9,32.62,32.62,0,0,1,4.68-4.49,4.92,4.92,0,0,1,1.5-.77,3.56,3.56,0,0,1,1.81.72,1.14,1.14,0,0,1,.45.91q0,2-6.35,7.9-11.7,10.8-21.41,10.8A10.57,10.57,0,0,1,495.24,69a11.58,11.58,0,0,1-4.81-5.35,8.59,8.59,0,0,1-1.09-5.08c.25-1.51.43-2.51.55-3a6.3,6.3,0,0,1,2-2.64c-1.57,1.58-2.69,2.36-3.35,2.36a1.94,1.94,0,0,1-1.5-.81,2.59,2.59,0,0,1-.68-1.64c0-.72.6-1.51,1.81-2.36a67.5,67.5,0,0,0,6-6.71,61.51,61.51,0,0,1,10.3-9.89q7.44-5.62,13.25-5.63a8.24,8.24,0,0,1,6.08,2.27,7.64,7.64,0,0,1,2.54,5.44q0,4.37-5.45,10.17A40.19,40.19,0,0,1,503.59,57.17ZM509.76,48q1.46,0,6.17-5a9.07,9.07,0,0,0,2.82-6.26c0-1-.37-1.45-1.09-1.45q-1.73,0-6.17,5.9-3.09,3.72-3.09,5.62C508.4,47.61,508.85,48,509.76,48Z"/></g></g></svg>